<svg height="480pt" viewBox="-24 0 480 480" width="480pt" xmlns="http://www.w3.org/2000/svg"><path d="m423.992188 472h-416l48-256c0-114.878906 71.601562-208 160-208 88.402343 0 160 93.121094 160 208zm0 0" fill="#2d2d30"/><path d="m327.992188 200c0 19.761719-19.117188 38.558594-24.71875 55.761719-16.960938 51.839843-40.800782 88.238281-87.28125 88.238281-44.238282 0-66.476563-33.039062-84.71875-80.878906-7.199219-19.121094-27.28125-40.480469-27.28125-63.121094 0-67.519531 36.160156-124 84.882812-139.601562 8.753906-2.871094 17.90625-4.355469 27.117188-4.398438 61.84375 0 112 64.480469 112 144zm0 0" fill="#e0e0e2"/><path d="m183.992188 160c0-13.253906-7.160157-24-16-24-8.835938 0-16 10.746094-16 24s7.164062 24 16 24c8.839843 0 16-10.746094 16-24zm0 0" fill="#2d2d30"/><path d="m279.992188 160c0-13.253906-7.160157-24-16-24-8.835938 0-16 10.746094-16 24s7.164062 24 16 24c8.839843 0 16-10.746094 16-24zm0 0" fill="#2d2d30"/><path d="m223.992188 280v-24h-8c-8.109376-.042969-16.1875 1.046875-24 3.238281v20.761719zm0 0" fill="#898890"/><path d="m248.242188 251.28125c-7.113282-2.082031-23.398438 4.71875-32.25 4.71875h8v24h-32v-20.761719c-14.335938 4.152344-24 11.882813-24 20.761719 1.953124 13.488281 11.402343 24.695312 24.371093 28.894531 6.976563 1.976563 15.039063-4.894531 23.628907-4.894531 26.515624 0 48-10.742188 48-24 0-8.800781-1.542969-24.550781-15.75-28.71875zm0 0" fill="#c6c5ca"/><path d="m215.992188 184-16 48h32zm0 0" fill="#898890"/><path d="m335.992188 200c0-83.816406-53.832032-152-120-152-9.738282.058594-19.410157 1.601562-28.6875 4.574219-.199219.042969-.390626 0-.589844.042969-.277344.121093-.542969.257812-.800782.414062-51.640624 16.976562-89.921874 76.335938-89.921874 146.96875 0 16.800781 9.210937 32.335938 17.339843 46.046875 4.019531 6.339844 7.523438 12.984375 10.484375 19.882813 16.175782 42.566406 39.738282 86.070312 92.175782 86.070312 56.953124 0 80.632812-50.121094 94.898437-93.777344 2.625-6.65625 5.941406-13.019531 9.902344-18.984375 4.117187-6.417969 7.742187-13.136719 10.847656-20.101562v-.046875c2.707031-6.011719 4.1875-12.5 4.351563-19.089844zm-28.796876 30.921875c-4.640624 6.996094-8.488281 14.488281-11.472656 22.335937-18.984375 58-42.824218 82.742188-79.730468 82.742188-34.871094 0-56.527344-21.230469-77.222657-75.742188-3.257812-7.78125-7.160156-15.273437-11.671875-22.402343-7.421875-12.496094-15.105468-25.449219-15.105468-37.855469 0-58.398438 28.3125-108.105469 67.875-127.367188.148437 1.203126.417968 2.386719.800781 3.535157 1.285156 3.933593 3.941406 7.273437 7.484375 9.40625 1.128906.800781 1.128906.800781 1.3125 1.304687s.175781.535156-.253906 1.824219c-3.023438 7.964844.019531 16.953125 7.261718 21.441406 1.128906.757813 1.128906.757813 1.3125 1.304688.183594.542969.175782.542969-.261718 1.878906-1.488282 3.847656-1.5625 8.101563-.21875 12 1.421874 4.1875 5.96875 6.429687 10.152343 5.007813 4.1875-1.421876 6.429688-5.964844 5.007813-10.152344-.191406-.542969-.191406-.542969.257812-1.878906 3.015625-7.96875-.03125-16.953126-7.265625-21.449219-1.136719-.800781-1.136719-.800781-1.3125-1.3125s-.183593-.527344.25-1.816407c3.019531-7.957031-.023437-16.941406-7.257812-21.429687-1.132813-.800781-1.132813-.800781-1.3125-1.296875-.175781-.496094-.183594-.542969.257812-1.871094.28125-.898437.519531-1.808594.710938-2.730468 6.28125-1.570313 12.726562-2.375 19.199219-2.398438 57.347656 0 104 61.007812 104 136-.042969 2.714844-.46875 5.40625-1.269532 8h-30.730468c-4.417969 0-8 3.582031-8 8s3.582031 8 8 8h23.3125c-1.34375 2.3125-2.742188 4.625-4.109376 6.921875zm0 0"/><path d="m191.992188 160c0-17.945312-10.535157-32-24-32-13.460938 0-24 14.054688-24 32s10.539062 32 24 32c13.464843 0 24-14.054688 24-32zm-32 0c0-9.769531 4.738281-16 8-16 3.265624 0 8 6.230469 8 16s-4.734376 16-8 16c-3.261719 0-8-6.230469-8-16zm0 0"/><path d="m263.992188 128c-13.460938 0-24 14.054688-24 32s10.539062 32 24 32c13.464843 0 24-14.054688 24-32s-10.535157-32-24-32zm0 48c-3.261719 0-8-6.230469-8-16s4.738281-16 8-16c3.265624 0 8 6.230469 8 16s-4.734376 16-8 16zm0 0"/><path d="m250.488281 243.601562c-7.464843-1.09375-15.085937-.371093-22.214843 2.109376-4.011719 1.144531-8.125 1.910156-12.28125 2.289062-31.917969 0-56 13.761719-56 32 1.957031 17.085938 13.785156 31.417969 30.1875 36.585938 1.582031.449218 3.222656.675781 4.871093.671874 4.273438-.234374 8.46875-1.246093 12.382813-2.976562 2.710937-1.222656 5.601562-1.992188 8.558594-2.28125 31.921874 0 56-13.761719 56-32 0-24.863281-11.6875-33.511719-21.503907-36.398438zm-50.496093 21.902344c5.273437-1.011718 10.632812-1.515625 16-1.503906v8h-16zm16 30.496094c-4.882813.214844-9.6875 1.335938-14.167969 3.304688-2.285157 1.082031-4.757813 1.722656-7.285157 1.886718-9.519531-3.25-16.585937-11.324218-18.546874-21.191406 0-2.761719 2.929687-6.023438 8-8.894531v8.894531c0 4.417969 3.582031 8 8 8h32c4.421874 0 8-3.582031 8-8v-18.726562h.050781c4.210937-1.167969 8.515625-1.96875 12.863281-2.402344.367188-.011719.730469.027344 1.085938.113281 2.472656.726563 10 2.925781 10 21.039063 0 6.496093-15.582032 15.976562-40 15.976562zm0 0"/><path d="m199.992188 240h32c2.570312 0 4.984374-1.238281 6.488281-3.324219 1.5-2.085937 1.910156-4.765625 1.097656-7.203125l-16-48c-1.078125-3.285156-4.144531-5.503906-7.601563-5.503906-3.453124 0-6.519531 2.21875-7.597656 5.503906l-16 48c-.816406 2.441406-.402344 5.128906 1.109375 7.214844 1.507813 2.089844 3.929688 3.320312 6.503907 3.3125zm16-30.703125 4.898437 14.703125h-9.792969zm0 0"/><path d="m383.992188 215.246094c-.308594-118.757813-75.550782-215.246094-168-215.246094-92.445313 0-167.6875 96.488281-168 215.246094l-47.855469 255.273437c-.4375 2.339844.183593 4.753907 1.703125 6.585938 1.519531 1.832031 3.773437 2.894531 6.152344 2.894531h416c2.382812 0 4.636718-1.0625 6.15625-2.894531 1.519531-1.832031 2.140624-4.246094 1.703124-6.585938zm-366.359376 248.753906 46.21875-246.519531c.09375-.488281.140626-.984375.140626-1.480469 0-110.28125 68.1875-200 152-200 83.816406 0 152 89.71875 152 200 .003906.496094.050781.992188.144531 1.480469l46.257812 246.519531zm0 0"/></svg>